<?xml version="1.0" standalone="no"?>
<!DOCTYPE svg PUBLIC "-//W3C//DTD SVG 20010904//EN"
 "http://www.w3.org/TR/2001/REC-SVG-20010904/DTD/svg10.dtd">
<svg version="1.0" xmlns="http://www.w3.org/2000/svg"
 width="40.000000pt" height="36.000000pt" viewBox="0 0 40.000000 36.000000"
 preserveAspectRatio="xMidYMid meet">
<metadata>
Created by potrace 1.13, written by Peter Selinger 2001-2015
</metadata>
<g transform="translate(0.000000,36.000000) scale(0.100000,-0.100000)"
fill="#000000" stroke="none">
<path d="M0 180 l0 -180 200 0 200 0 0 180 0 180 -200 0 -200 0 0 -180z m240
65 c0 -8 -7 -15 -15 -15 -8 0 -15 -7 -15 -15 0 -8 7 -15 15 -15 8 0 15 -5 15
-10 0 -6 -7 -13 -15 -16 -10 -4 -15 -20 -15 -50 0 -37 -3 -44 -20 -44 -17 0
-20 7 -20 45 0 25 -4 45 -10 45 -5 0 -10 7 -10 15 0 8 5 15 10 15 6 0 10 8 10
18 0 10 5 23 12 30 17 17 58 15 58 -3z"/>
</g>
</svg>
