<?xml version="1.0" standalone="no"?>
<!DOCTYPE svg PUBLIC "-//W3C//DTD SVG 20010904//EN"
 "http://www.w3.org/TR/2001/REC-SVG-20010904/DTD/svg10.dtd">
<svg version="1.0" xmlns="http://www.w3.org/2000/svg"
 width="40.000000pt" height="37.000000pt" viewBox="0 0 40.000000 37.000000"
 preserveAspectRatio="xMidYMid meet">
<metadata>
Created by potrace 1.13, written by Peter Selinger 2001-2015
</metadata>
<g transform="translate(0.000000,37.000000) scale(0.100000,-0.100000)"
fill="#000000" stroke="none">
<path d="M0 185 l0 -185 200 0 200 0 0 185 0 185 -200 0 -200 0 0 -185z m244
69 c-7 -3 -10 -14 -7 -25 3 -11 0 -31 -7 -45 -11 -20 -11 -27 3 -42 22 -24 21
-46 0 -63 -16 -13 -17 -12 -4 4 12 15 11 21 -10 43 -20 21 -21 28 -11 44 17
27 15 50 -5 72 -15 17 -14 18 18 17 19 0 29 -3 23 -5z m-74 -19 c-10 -12 -9
-20 5 -41 16 -25 16 -26 -2 -22 -29 5 -31 78 -2 78 8 0 8 -4 -1 -15z m-17
-123 c-5 -20 11 -37 42 -45 18 -4 17 -5 -3 -6 -49 -2 -77 30 -50 57 16 16 17
15 11 -6z"/>
</g>
</svg>
