<?xml version="1.0" standalone="no"?>
<!DOCTYPE svg PUBLIC "-//W3C//DTD SVG 20010904//EN"
 "http://www.w3.org/TR/2001/REC-SVG-20010904/DTD/svg10.dtd">
<svg version="1.0" xmlns="http://www.w3.org/2000/svg"
 width="40.000000pt" height="37.000000pt" viewBox="0 0 40.000000 37.000000"
 preserveAspectRatio="xMidYMid meet">
<metadata>
Created by potrace 1.13, written by Peter Selinger 2001-2015
</metadata>
<g transform="translate(0.000000,37.000000) scale(0.100000,-0.100000)"
fill="#000000" stroke="none">
<path d="M0 185 l0 -185 200 0 200 0 0 185 0 185 -200 0 -200 0 0 -185z m254
-34 c-29 -33 -82 -49 -110 -33 -16 9 -15 10 4 16 l22 7 -20 40 c-23 43 -22 44
15 27 22 -10 28 -9 41 10 l15 22 30 -30 30 -29 -27 -30z"/>
</g>
</svg>
